<svg data-v-0dd9719b="" version="1.0" xmlns="http://www.w3.org/2000/svg" xmlns:xlink="http://www.w3.org/1999/xlink" width="100%" height="100%" viewBox="0 0 340.000000 250.000000" preserveAspectRatio="xMidYMid meet" color-interpolation-filters="sRGB" style="margin: auto;"> <rect data-v-0dd9719b="" x="0" y="0" width="100%" height="100%" fill="#ffffff" fill-opacity="1" class="background"></rect> <rect data-v-0dd9719b="" x="0" y="0" width="100%" height="100%" fill="url(#watermark)" fill-opacity="1" class="watermarklayer"></rect> <g data-v-0dd9719b="" fill="#312B30" class="icon-text-wrapper icon-svg-group iconsvg" transform="translate(50.99198913580022,94.91425514221191)"><g class="iconsvg-imagesvg" transform="translate(0,0)"><g><rect fill="#312B30" fill-opacity="0" stroke-width="2" x="0" y="0" width="60" height="60.17148874291732" class="image-rect"></rect> <svg x="0" y="0" width="60" height="60.17148874291732" filtersec="colorsb9700639387" class="image-svg-svg primary" style="overflow: visible;"><svg xmlns="http://www.w3.org/2000/svg" viewBox="0.0050809383392333984 0 481.48590087890625 482.8599853515625"><g><g fill-rule="evenodd"><path d="M197.37 0c130.77 0 256.19 108.09 280.14 241.43s-62.63 241.43-193.39 241.43c-51.9 0-103-17-147.17-45.93l309.4-164.31c18.64-9.9 23.67-30.08 10-40L192.6 42.17c-21.31-15.38-39.27-17-48.52 20.09L66.45 373.72C35.16 335.73 12.76 290.28 4 241.43-20 108.09 66.61 0 197.37 0z" fill="#63aebb"></path><path d="M181.59 101.07l207.54 127c10.79 6.6 10.79 20.06 0 26.66l-207.54 127c-16.77 10.26-29 11.37-29-13.4V114.47c-.02-24.77 12.23-23.66 29-13.4z" fill="#7a5d7e"></path></g></g></svg></svg> <!----></g></g> <g transform="translate(67,6.631895065307617)"><g data-gra="path-name" fill-rule="" class="tp-name iconsvg-namesvg" transform="translate(0,0)"><g transform="scale(1)"><g><path d="M29.46 2.6L29.46 2.6Q29.8 2.8 29.98 2.85 30.15 2.91 30.23 2.84 30.32 2.77 30.35 2.56L30.35 2.56Q30.49 1.78 31.14 1.09 31.79 0.41 32.61 0.17L32.61 0.17Q33.67-0.14 32.61-0.51L32.61-0.51Q27.82-2.32 24.49-5.23 21.16-8.13 19.65-11.76L19.65-11.76Q18.9-13.57 18.9-13.84L18.9-13.84Q18.94-14.42 20.3-14.56L20.3-14.56Q20.95-14.59 25.33-14.63L25.33-14.63Q31.17-14.66 31.48-14.8L31.48-14.8Q31.62-14.87 31.65-15.14L31.65-15.14Q31.68-15.38 30.76-16.24 29.84-17.09 28.78-17.84L28.78-17.84Q28.2-18.25 27.98-18.17 27.75-18.08 27.04-17.16L27.04-17.16Q26.22-16.06 25.98-15.89L25.98-15.89Q25.5-15.62 23.28-15.62L23.28-15.62Q22.32-15.62 22.15-15.62L22.15-15.62Q21.81-15.62 21.16-15.62L21.16-15.62Q18.83-15.62 18.53-15.86L18.53-15.86Q18.25-16.06 18.35-17.19L18.35-17.19Q18.39-17.5 18.39-17.67L18.39-17.67Q18.49-18.7 18.56-21.46L18.56-21.46Q18.56-21.7 18.56-22.63L18.56-22.63Q18.56-24.3 19.14-24.58 19.72-24.85 23.24-24.85L23.24-24.85Q24.78-24.85 25.74-24.85L25.74-24.85Q30.9-24.88 31.68-24.92 32.47-24.95 32.61-25.22 32.74-25.5 31.75-26.47 30.76-27.45 29.57-28.2L29.57-28.2Q29.09-28.54 28.86-28.42 28.64-28.3 27.89-27.24L27.89-27.24Q27.04-25.98 26.52-25.87L26.52-25.87Q26.18-25.81 15-25.86 3.83-25.91 3.18-25.98L3.18-25.98Q2.39-26.04 2.32-25.94 2.26-25.84 2.63-25.16L2.63-25.16Q2.97-24.51 3.11-24.44 3.25-24.37 3.9-24.47L3.9-24.47Q5.98-24.78 10.42-24.81L10.42-24.81Q10.87-24.81 11.66-24.81L11.66-24.81Q14.32-24.85 14.73-24.61L14.73-24.61Q15.07-24.37 15.04-23.28L15.04-23.28Q15.04-23.24 15.04-23.17L15.04-23.17Q15.04-22.83 15.04-22.66L15.04-22.66Q15.04-16.13 14.39-15.76L14.39-15.76Q14.08-15.59 10.07-15.6 6.05-15.62 4.03-15.79L4.03-15.79Q3.55-15.86 3.54-15.76 3.52-15.65 3.83-14.97 4.14-14.29 4.27-14.22 4.41-14.15 5.26-14.29L5.26-14.29Q7.21-14.56 10.77-14.59L10.77-14.59Q13.77-14.63 14.22-14.42L14.22-14.42Q14.63-14.18 14.42-13.02L14.42-13.02Q14.39-12.95 14.29-12.37L14.29-12.37Q13.3-7.59 10.54-4.15 7.79-0.72 2.91 1.85L2.91 1.85Q2.53 2.02 2.32 2.14 2.12 2.26 2.03 2.36 1.95 2.46 1.97 2.53 1.98 2.6 2.05 2.67L2.05 2.67Q2.22 2.8 2.38 2.77 2.53 2.73 3.38 2.43L3.38 2.43Q9.54 0.07 12.8-3.18 16.06-6.43 17.5-11.66L17.5-11.66Q17.91-13.19 18.17-13.23 18.42-13.26 18.8-11.79L18.8-11.79Q21.23-1.78 29.46 2.6ZM40.13 2.8L40.13 2.8Q41.77 3.62 42.52 1.91L42.52 1.91Q43.37-0.07 42.42-3.45L42.42-3.45Q41.73-5.91 42.04-7.76L42.04-7.76Q42.21-8.85 43.46-13.6 44.71-18.35 44.91-18.76L44.91-18.76Q45.05-19.07 45.32-19.09 45.6-19.11 45.73-18.83L45.73-18.83Q45.9-18.56 46.42-18.63L46.42-18.63Q48.02-18.9 50.31-19 52.6-19.11 52.91-18.94L52.91-18.94Q53.42-18.66 53.44-17.07 53.46-15.48 52.94-15.21L52.94-15.21Q52.74-15.11 50.52-15.12 48.3-15.14 47.03-15.24L47.03-15.24Q46.21-15.31 46.14-15.24 46.07-15.18 46.42-14.53L46.42-14.53Q46.76-13.84 46.89-13.74 47.03-13.64 47.51-13.74L47.51-13.74Q48.84-13.98 50.72-14.1 52.6-14.22 52.91-14.05L52.91-14.05Q53.29-13.84 53.44-12.46 53.59-11.07 53.29-10.49L53.29-10.49Q53.08-10.08 51-10.01 48.91-9.95 45.9-10.22L45.9-10.22Q45.29-10.25 45.25-10.15 45.22-10.05 45.6-9.37L45.6-9.37Q45.9-8.72 46.13-8.66 46.35-8.61 47.68-8.82L47.68-8.82Q48.91-8.99 50.79-9.02 52.67-9.06 52.94-8.92L52.94-8.92Q53.46-8.65 53.44-6.85 53.42-5.06 52.91-4.79L52.91-4.79Q52.67-4.65 49.1-4.7 45.53-4.75 44.33-4.92L44.33-4.92Q44.02-4.99 44.06-4.79L44.06-4.79Q44.06-4.61 44.33-4.1L44.33-4.1Q44.67-3.42 44.84-3.35 45.01-3.28 46.04-3.42L46.04-3.42Q47.95-3.66 50.31-3.71 52.67-3.76 52.98-3.59L52.98-3.59Q53.7-3.14 53.29 1.61L53.29 1.61Q53.22 2.39 53.39 2.65 53.56 2.91 54.11 2.91L54.11 2.91Q55.13 2.87 55.94 2.34 56.74 1.81 56.67 1.2L56.67 1.2Q56.6 0.31 56.58-1.33 56.57-2.97 56.67-3.21L56.67-3.21Q56.81-3.52 57.01-3.59L57.01-3.59Q57.46-3.69 62.41-3.73L62.41-3.73Q66.62-3.76 67.3-3.79 67.98-3.83 68.15-4.1L68.15-4.1Q68.46-4.58 66.21-6.39L66.21-6.39Q65.21-7.21 64.96-7.13 64.7-7.04 63.64-5.61L63.64-5.61Q63.13-4.92 62.74-4.82 62.34-4.72 59.99-4.68L59.99-4.68Q59.78-4.68 59.44-4.68L59.44-4.68Q57.29-4.68 56.93-4.9 56.57-5.13 56.57-6.53L56.57-6.53Q56.57-6.77 56.57-6.9L56.57-6.9Q56.57-7.14 56.57-7.52L56.57-7.52Q56.53-8.54 56.84-8.75L56.84-8.75Q57.22-9.02 59.95-9.02L59.95-9.02Q60.91-9.02 61.49-9.02L61.49-9.02Q64.98-9.06 65.56-9.09 66.14-9.13 66.31-9.4L66.31-9.4Q66.62-9.88 64.5-11.59L64.5-11.59Q63.4-12.37 63.4-12.54L63.4-12.54Q63.4-12.78 64.26-13.3L64.26-13.3Q64.53-13.47 64.55-13.62 64.57-13.77 64.53-14.73L64.53-14.73Q64.36-17.94 64.62-18.47 64.87-19 66.65-19.04L66.65-19.04Q68.63-19.04 68.82-19.41 69.01-19.79 67.68-21.12L67.68-21.12Q66.79-21.98 66.51-22.03 66.24-22.08 65.8-21.4L65.8-21.4Q64.5-19.48 64.46-21.77L64.46-21.77Q64.46-22.7 64.6-23 64.74-23.31 65.25-23.58L65.25-23.58Q65.59-23.75 65.69-23.93 65.8-24.1 65.63-24.37 65.45-24.64 65.06-24.97 64.67-25.29 63.88-25.87L63.88-25.87Q62.99-26.49 62.74-26.51 62.48-26.52 62.04-25.94L62.04-25.94Q61.39-25.16 60.96-25 60.53-24.85 58.93-24.85L58.93-24.85Q57.22-24.85 56.88-25.05 56.53-25.26 56.6-26.25L56.6-26.25Q56.6-27.24 57.05-27.55L57.05-27.55Q57.87-27.99 56.26-28.61L56.26-28.61Q55.51-28.88 54.14-29.26L54.14-29.26Q53.39-29.43 53.3-29.38 53.22-29.33 53.29-28.68L53.29-28.68Q53.63-25.33 52.91-24.99L52.91-24.99Q52.57-24.85 50.55-24.87 48.54-24.88 47-25.05L47-25.05Q46.38-25.12 46.38-24.99L46.38-24.99Q46.38-24.88 46.69-24.23L46.69-24.23Q47.03-23.58 47.2-23.53 47.37-23.48 48.54-23.65L48.54-23.65Q51.54-24.13 52.48-23.81 53.42-23.48 53.42-21.94L53.42-21.94Q53.42-21.81 53.42-21.6L53.42-21.6Q53.42-20.41 53.08-20.22 52.74-20.03 50.48-20.06L50.48-20.06Q50.04-20.06 49.8-20.06L49.8-20.06Q46.35-20.1 45.83-20.3 45.32-20.51 45.66-21.77L45.66-21.77Q45.77-22.15 45.82-22.37 45.87-22.59 45.85-22.71 45.83-22.83 45.78-22.87 45.73-22.9 45.6-22.9L45.6-22.9Q45.42-22.9 45.29-22.61 45.15-22.32 44.33-20.23L44.33-20.23Q43.85-18.9 43.39-17.76 42.93-16.61 42.69-16L42.69-16Q42.21-14.46 40.26-9.64L40.26-9.64Q39.58-8.1 39.22-7.71 38.86-7.31 37.97-7.28L37.97-7.28Q37.39-7.25 37.27-7.18 37.15-7.11 37.22-6.84L37.22-6.84Q37.32-6.6 37.73-6.53L37.73-6.53Q38.93-6.29 39.31-4.8 39.68-3.32 39.38-0.03L39.38-0.03Q39.24 1.3 39.41 1.91 39.58 2.53 40.13 2.8ZM61.28-10.22L61.28-10.22Q61.01-10.05 59.17-10.01L59.17-10.01Q57.15-10.01 56.86-10.25 56.57-10.49 56.57-12.07 56.57-13.64 56.86-13.89 57.15-14.15 58.96-14.15L58.96-14.15Q60.7-14.15 61.1-13.98 61.49-13.81 61.52-13.06L61.52-13.06Q61.56-12.75 61.63-12.7 61.69-12.65 62-12.61L62-12.61Q62.72-12.58 62.72-12.24L62.72-12.24Q62.72-12.03 62.16-11.23 61.59-10.42 61.28-10.22ZM61.11-15.28L61.11-15.28Q60.87-15.11 59.05-15.09 57.22-15.07 56.98-15.24L56.98-15.24Q56.5-15.52 56.53-17.09 56.57-18.66 57.05-18.9L57.05-18.9Q57.29-19.07 58.99-19.07 60.7-19.07 60.98-18.9L60.98-18.9Q61.52-18.66 61.57-17.14 61.63-15.62 61.11-15.28ZM61.11-20.2L61.11-20.2Q60.87-20.03 59.05-20.01 57.22-20 56.98-20.17L56.98-20.17Q56.53-20.44 56.53-21.96 56.53-23.48 56.98-23.75L56.98-23.75Q57.22-23.93 59.05-23.89 60.87-23.86 61.11-23.69L61.11-23.69Q61.56-23.41 61.56-21.94 61.56-20.47 61.11-20.2ZM40.23-16.06L40.23-16.06Q41.22-15.69 41.8-16.24 42.38-16.78 42.26-17.76 42.14-18.73 41.29-19.52L41.29-19.52Q40.2-20.54 38.08-21.05L38.08-21.05Q36.74-21.36 36.81-20.95L36.81-20.95Q36.85-20.82 37.05-20.61L37.05-20.61Q37.87-19.82 38.64-18.61 39.41-17.4 39.58-16.68L39.58-16.68Q39.68-16.27 40.23-16.06ZM43.2-23.58L43.2-23.58Q43.99-23.31 44.62-23.84 45.25-24.37 45.22-25.22L45.22-25.22Q45.22-26.49 43.96-27.5 42.69-28.51 40.57-28.92L40.57-28.92Q39.99-29.02 39.72-29.05 39.44-29.09 39.36-29 39.27-28.92 39.38-28.75 39.48-28.57 39.79-28.23L39.79-28.23Q41.97-25.81 42.49-24.13L42.49-24.13Q42.59-23.79 43.2-23.58ZM87.4 2.73L87.4 2.73Q87.81 2.97 88.85 2.75 89.89 2.53 90.23 2.12L90.23 2.12Q90.37 1.95 90.34 1.33L90.34 1.33Q90.34 1.3 90.34 1.23L90.34 1.23Q90.27 0.27 90.58 0.1L90.58 0.1Q90.95-0.14 93.93-0.14L93.93-0.14 94.2-0.14Q97.48-0.14 97.86 0.07L97.86 0.07Q98.16 0.24 98.13 1.09L98.13 1.09Q98.1 1.3 98.1 1.37L98.1 1.37Q98.06 2.43 98.37 2.6L98.37 2.6Q98.68 2.73 99.45 2.61 100.21 2.5 100.83 2.22 101.45 1.95 101.51 1.69 101.58 1.44 101.51-0.48L101.51-0.48Q101.41-2.32 101.41-6.15L101.41-6.15Q101.41-9.02 101.48-9.54 101.55-10.05 102.03-10.25L102.03-10.25Q103.26-10.77 100.63-12.58L100.63-12.58Q99.84-13.06 99.65-13.01 99.46-12.95 98.64-12.03L98.64-12.03Q98.1-11.42 97.69-11.35 97.28-11.28 94.1-11.28L94.1-11.28Q91.43-11.31 90.76-11.4 90.1-11.48 88.8-12L88.8-12Q87.19-12.65 87.09-12.58L87.09-12.58Q86.95-12.51 87.06-11.48L87.06-11.48Q87.26-9.37 87.29-5.09 87.33-0.82 87.16 1.2L87.16 1.2Q87.09 2.08 87.12 2.34 87.16 2.6 87.4 2.73ZM97.69-1.23L97.69-1.23Q97.41-1.09 94.23-1.11 91.05-1.13 90.78-1.26L90.78-1.26Q90.41-1.44 90.35-1.97 90.3-2.5 90.3-5.71L90.3-5.71Q90.3-6.22 90.3-7.08L90.3-7.08Q90.27-9.54 90.59-9.93 90.92-10.32 92.97-10.29L92.97-10.29Q93.75-10.29 94.23-10.29 94.71-10.29 95.5-10.29L95.5-10.29Q97.55-10.32 97.87-9.95 98.2-9.57 98.16-7.14L98.16-7.14Q98.16-6.25 98.16-5.71L98.16-5.71Q98.16-2.46 98.11-1.93 98.06-1.4 97.69-1.23ZM71.74 2.32L71.74 2.32Q71.91 2.63 73.69 1.61L73.69 1.61Q76.77-0.1 79.26-3.01L79.26-3.01Q79.95-3.86 80.2-3.98 80.46-4.1 80.83-3.76 81.21-3.42 81.84-2.31 82.48-1.2 82.71-0.41L82.71-0.41Q82.89 0.1 83.55 0.26 84.22 0.41 84.66 0.03L84.66 0.03Q85.69-0.79 85.23-2.5 84.77-4.2 83.06-5.91L83.06-5.91Q82.17-6.8 82.12-7.14 82.07-7.49 82.58-8.78L82.58-8.78Q83.6-11.52 84.12-14.53L84.12-14.53Q84.39-16.13 84.53-16.61L84.53-16.61Q84.7-17.23 84.7-17.98 84.7-18.73 84.87-19.04 85.04-19.35 85.59-19.58L85.59-19.58Q86.06-19.82 86-20.06 85.93-20.3 85.18-21.05L85.18-21.05Q83.88-22.35 83.43-22.49 82.99-22.63 82.3-21.91L82.3-21.91Q81.72-21.26 80.9-20.99 80.08-20.71 79.5-20.9 78.92-21.09 78.92-21.67L78.92-21.67Q78.96-22.76 79.6-25.24 80.25-27.72 80.56-27.89L80.56-27.89Q80.7-27.99 80.97-28.13L80.97-28.13Q81.28-28.4 80.36-28.75L80.36-28.75Q79.71-28.98 78.2-29.36L78.2-29.36Q77.28-29.6 77.14-29.53 77.01-29.46 77.01-28.75L77.01-28.75Q77.01-27.41 76.6-24.76 76.19-22.11 75.88-21.46L75.88-21.46Q75.4-20.58 72.22-21.05L72.22-21.05Q71.71-21.12 71.66-21.02 71.61-20.92 71.95-20.27L71.95-20.27Q72.26-19.62 72.36-19.58 72.46-19.55 73.21-19.76L73.21-19.76Q75.09-20.27 75.37-19.41L75.37-19.41Q75.47-19.14 74.49-15.11 73.52-11.07 72.63-8.24L72.63-8.24Q72.26-7.04 72.41-6.8 72.56-6.56 73.73-6.53L73.73-6.53Q74.61-6.53 74.9-6.72 75.2-6.9 75.37-7.55L75.37-7.55Q75.64-8.51 76.07-8.51 76.49-8.51 77.55-7.52L77.55-7.52Q78.41-6.7 78.49-6.31 78.58-5.91 78.1-4.99L78.1-4.99Q77.14-3.14 75.57-1.33 74 0.48 72.32 1.64L72.32 1.64Q71.85 1.98 71.76 2.08 71.67 2.19 71.74 2.32ZM79.4-8.72L79.4-8.72Q79.13-8.61 78.96-8.66 78.78-8.72 77.45-9.19L77.45-9.19Q77.38-9.23 77.25-9.26L77.25-9.26Q76.39-9.57 76.29-9.91L76.29-9.91Q76.15-10.36 76.87-13.23L76.87-13.23Q76.97-13.64 77.04-13.88L77.04-13.88Q77.72-16.92 78.13-18.32L78.13-18.32Q78.37-19.48 78.65-19.7 78.92-19.93 79.98-19.96L79.98-19.96Q81.31-20 81.52-19.47 81.72-18.94 81.42-16.47L81.42-16.47Q81.04-13.33 80.46-11.11 79.88-8.89 79.4-8.72ZM101.27-13.95L101.27-13.95Q102.13-13.67 102.73-14.37 103.33-15.07 103.22-16.24L103.22-16.24Q103.09-18.12 101.46-19.96 99.84-21.81 97.14-23.21L97.14-23.21Q96.32-23.58 96.2-23.48 96.08-23.38 96.56-22.66L96.56-22.66Q97.34-21.57 98.03-20.37 98.71-19.17 98.71-18.9L98.71-18.9Q98.71-18.42 98.11-18.3 97.51-18.18 94.34-18.05L94.34-18.05Q90.95-17.88 90.64-18.18L90.64-18.18Q90.41-18.39 90.95-19.28L90.95-19.28Q92.87-22.63 94.37-25.84L94.37-25.84Q95.05-27.38 95.57-27.65L95.57-27.65Q96.35-28.03 94.88-28.61L94.88-28.61Q94.17-28.88 92.76-29.29L92.76-29.29Q91.57-29.67 91.4-29.63 91.23-29.6 91.19-28.95L91.19-28.95Q90.95-25.02 89.48-19.62L89.48-19.62Q89.14-18.25 88.65-17.98 88.15-17.71 86.03-17.71L86.03-17.71Q85.21-17.71 85.18-17.52 85.14-17.33 85.55-16L85.55-16Q85.65-15.69 85.81-15.16 85.96-14.63 86-14.53L86-14.53Q86.13-14.01 86.29-13.96 86.44-13.91 86.82-14.25L86.82-14.25Q87.12-14.53 87.59-14.68 88.05-14.83 89.62-15.18L89.62-15.18Q91.16-15.52 96.76-16.88L96.76-16.88Q98.88-17.43 99.45-17.11 100.01-16.78 100.35-14.8L100.35-14.8Q100.45-14.22 101.27-13.95ZM107.5 2.84L107.5 2.84Q107.7 2.97 110.64 2.63L110.64 2.63Q117.27 1.81 122.12-0.17L122.12-0.17Q122.94-0.51 123.3-0.5 123.66-0.48 124.48-0.14L124.48-0.14Q128.58 1.78 133.81 2.63L133.81 2.63Q135.42 2.87 135.49 2.5L135.49 2.5Q135.63 1.74 136.24 0.94 136.86 0.14 137.47-0.14L137.47-0.14Q138.74-0.62 137.06-0.75L137.06-0.75Q136.92-0.79 136.72-0.79L136.72-0.79Q132.55-1.03 129.54-1.57L129.54-1.57Q127.29-2.02 127.06-2.36 126.84-2.7 128.14-3.73L128.14-3.73Q129.61-4.89 130.74-6.15L130.74-6.15Q131.69-7.25 132.45-7.42L132.45-7.42Q133.37-7.59 132.99-8.24L132.99-8.24Q132.72-8.68 131.73-9.67L131.73-9.67Q130.74-10.66 130.41-10.7 130.09-10.73 129.2-9.98L129.2-9.98Q128.31-9.19 127.8-9.11 127.29-9.02 123.87-9.02L123.87-9.02Q120.79-9.02 120.19-9.06 119.59-9.09 119.49-9.3L119.49-9.3Q119.36-9.54 119.61-9.93 119.87-10.32 120.21-10.39L120.21-10.39Q121.17-10.56 119.7-11.31L119.7-11.31Q118.54-11.93 118.54-12.17L118.54-12.17Q118.5-12.48 120.96-12.54L120.96-12.54Q121.85-12.54 123.59-12.54L123.59-12.54Q127.18-12.54 127.92-12.42 128.65-12.3 128.65-11.79L128.65-11.79Q128.65-11.52 129.03-11.45 129.4-11.38 130.04-11.54 130.67-11.69 131.35-12L131.35-12Q131.87-12.24 131.93-12.46 132-12.68 131.93-13.91L131.93-13.91Q131.59-19.93 132.38-20.2L132.38-20.2Q133.75-20.71 130.84-22.9L130.84-22.9Q130.16-23.38 129.95-23.36 129.75-23.34 129.34-22.83L129.34-22.83Q128.52-21.74 128-21.57L128-21.57Q127.59-21.46 122.4-21.48 117.2-21.5 116.79-21.64L116.79-21.64Q115.29-22.11 114.98-22.61 114.67-23.11 115.42-23.96L115.42-23.96Q115.7-24.23 115.94-24.3L115.94-24.3Q116.66-24.44 125.82-24.44L125.82-24.44Q133.51-24.44 134.74-24.47 135.97-24.51 136.14-24.78L136.14-24.78Q136.48-25.26 134.19-27.07L134.19-27.07Q133.03-27.92 132.75-27.89 132.48-27.86 131.8-26.93L131.8-26.93Q131.69-26.8 131.66-26.73L131.66-26.73Q130.87-25.6 130.33-25.46L130.33-25.46Q130.09-25.4 123.75-25.4 117.41-25.4 117.17-25.46L117.17-25.46Q116.86-25.63 116.86-26.01 116.86-26.39 117.15-26.81 117.44-27.24 117.85-27.34L117.85-27.34Q118.64-27.55 117.54-28.16L117.54-28.16Q116.96-28.51 115.6-29.12L115.6-29.12Q113.99-29.91 113.89-29.36L113.89-29.36Q113.2-26.01 111.32-22.73L111.32-22.73Q109.17-18.94 107.63-17.5L107.63-17.5Q107.39-17.29 107.51-17.06 107.63-16.82 107.91-16.95L107.91-16.95Q108.55-17.29 109.84-18.27 111.12-19.24 111.94-20L111.94-20Q113.03-21.02 113.24-21.02L113.24-21.02Q113.61-20.99 113.65-18.66L113.65-18.66Q113.68-18.15 113.68-15.89L113.68-15.89Q113.68-11.48 113.82-11.21L113.82-11.21Q113.92-11.04 114.4-11.14L114.4-11.14Q114.47-11.14 114.5-11.14L114.5-11.14Q115.77-11.31 115.9-11.18L115.9-11.18Q116.35-10.77 114.67-8.15 113-5.54 111.02-3.52L111.02-3.52Q110.16-2.7 110.01-2.5 109.85-2.29 109.99-2.15L109.99-2.15Q110.26-1.91 112.06-3.04 113.85-4.17 115.63-5.61L115.63-5.61Q116.52-6.36 116.86-6.37 117.2-6.39 117.75-5.64L117.75-5.64Q118.77-4.24 119.94-3.18L119.94-3.18Q120.76-2.46 120.64-2.12 120.52-1.78 119.29-1.16L119.29-1.16Q115.05 0.82 108.96 2.08L108.96 2.08Q107.39 2.39 107.39 2.63L107.39 2.63Q107.39 2.73 107.5 2.84ZM123.63-3.76L123.63-3.76Q122.71-3.32 120.35-4.89L120.35-4.89Q116.55-7.28 118.33-7.93L118.33-7.93Q118.4-7.93 118.47-7.96L118.47-7.96Q118.84-8.07 122.84-8.05 126.84-8.03 127.05-7.9L127.05-7.9Q127.42-7.72 126.93-6.89 126.43-6.05 125.46-5.11 124.48-4.17 123.63-3.76ZM128.24-13.67L128.24-13.67Q127.97-13.47 122.71-13.47 117.44-13.47 117.17-13.67L117.17-13.67Q116.72-13.95 116.72-15 116.72-16.06 117.17-16.34L117.17-16.34Q117.44-16.54 122.71-16.54 127.97-16.54 128.24-16.34L128.24-16.34Q128.69-16.06 128.69-15 128.69-13.95 128.24-13.67ZM128.14-17.6L128.14-17.6Q127.87-17.47 122.69-17.48 117.51-17.5 117.27-17.6L117.27-17.6Q116.79-17.84 116.74-18.94 116.69-20.03 117.17-20.34L117.17-20.34Q117.44-20.54 122.71-20.54 127.97-20.54 128.24-20.34L128.24-20.34Q128.72-20.03 128.67-18.94 128.62-17.84 128.14-17.6ZM166.22 2.87L166.22 2.87Q166.42 3.14 167.89 2.67 169.36 2.19 169.84 1.71L169.84 1.71Q170.39 1.16 170.49 0.79L170.49 0.79Q170.69-0.03 170.73-7.55L170.73-7.55Q170.73-8.44 170.73-8.78L170.73-8.78Q170.76-17.09 170.9-17.71L170.9-17.71Q171-18.05 171.31-18.18L171.31-18.18Q171.45-18.25 171.51-18.29L171.51-18.29Q172.09-18.59 172.01-18.87 171.92-19.14 171-19.89L171-19.89Q169.91-20.82 169.48-21.05 169.05-21.29 168.78-21.21 168.51-21.12 168.03-20.54L168.03-20.54Q167.38-19.79 167.04-19.65L167.04-19.65Q166.63-19.52 164.27-19.52L164.27-19.52Q162.22-19.55 161.53-19.7 160.85-19.86 158.63-20.82L158.63-20.82Q158.05-21.05 157.98-20.99 157.91-20.92 157.98-20.23L157.98-20.23Q158.12-19.31 158.1-14.48 158.08-9.64 157.94-8.75L157.94-8.75Q157.43-5.09 155.74-2.5 154.05 0.1 150.87 2.12L150.87 2.12Q150.08 2.56 150.29 2.8L150.29 2.8Q150.56 3.08 153.13 1.74L153.13 1.74Q158.35-0.89 160.2-5.64L160.2-5.64Q160.54-6.56 160.85-6.7L160.85-6.7Q161.26-6.94 164.1-6.94L164.1-6.94Q164.44-6.94 165.02-6.94L165.02-6.94Q167-6.97 167.33-6.68 167.65-6.39 167.62-4.85L167.62-4.85Q167.62-4.82 167.62-4.72L167.62-4.72Q167.62-4.24 167.62-3.93L167.62-3.93Q167.62-3.83 167.62-3.62L167.62-3.62Q167.62-2.7 167.62-2.34 167.62-1.98 167.46-1.54 167.31-1.09 167.17-1.01 167.04-0.92 166.51-0.84 165.98-0.75 165.5-0.79 165.02-0.82 163.93-0.92L163.93-0.92Q163.65-0.96 163.52-0.96L163.52-0.96Q163.21-0.96 162.85-0.97 162.49-0.99 162.3-1.01 162.11-1.03 162.08-1.03L162.08-1.03Q161.91-0.99 161.98-0.79 162.05-0.58 162.22-0.55L162.22-0.55Q162.42-0.48 163.11-0.34L163.11-0.34Q165.81 0.31 166.08 2.46L166.08 2.46Q166.11 2.7 166.22 2.87ZM167.14-7.93L167.14-7.93Q166.93-7.83 164.27-7.83L164.27-7.83Q161.64-7.83 161.26-8.07L161.26-8.07Q160.95-8.27 161.02-9.37L161.02-9.37Q161.05-9.57 161.05-9.57L161.05-9.57 161.19-11.35Q161.23-12.51 161.6-12.66 161.98-12.82 164.44-12.82L164.44-12.82Q164.64-12.82 164.99-12.82L164.99-12.82Q167.04-12.82 167.36-12.54 167.69-12.27 167.65-10.63L167.65-10.63Q167.65-10.36 167.65-10.19L167.65-10.19Q167.62-8.78 167.55-8.43 167.48-8.07 167.14-7.93ZM167.14-13.91L167.14-13.91Q166.87-13.77 164.42-13.79 161.98-13.81 161.7-13.95L161.7-13.95Q161.19-14.18 161.16-16.17 161.12-18.15 161.64-18.46L161.64-18.46Q161.88-18.63 164.44-18.59 167-18.56 167.24-18.39L167.24-18.39Q167.75-18.05 167.7-16.12 167.65-14.18 167.14-13.91ZM144.17-1.81L144.17-1.81Q144.85-1.4 146.02-1.91 147.18-2.43 147.11-3.11L147.11-3.11Q146.9-4.96 147.25-5.31 147.59-5.67 149.54-5.67L149.54-5.67Q151.28-5.67 151.57-5.5 151.86-5.33 151.83-4.34L151.83-4.34Q151.83-3.93 152.12-3.76 152.41-3.59 152.99-3.69 153.57-3.79 154.32-4.17L154.32-4.17Q154.94-4.44 155-4.7 155.07-4.96 154.97-6.7L154.97-6.7Q154.53-17.53 155.45-18.01L155.45-18.01Q155.79-18.22 155.71-18.47 155.62-18.73 154.97-19.31L154.97-19.31Q153.91-20.2 153.72-20.56 153.54-20.92 153.88-21.19L153.88-21.19Q154.05-21.36 154.08-22.56L154.08-22.56Q154.08-22.66 154.08-22.9L154.08-22.9Q154.12-23.93 154.42-24.1L154.42-24.1Q154.73-24.3 156.88-24.3L156.88-24.3Q157.23-24.3 157.4-24.3L157.4-24.3 157.57-24.3Q160.06-24.3 160.41-24.03L160.41-24.03Q160.75-23.79 160.68-22.56L160.68-22.56Q160.64-22.52 160.64-22.46L160.64-22.46Q160.64-22.35 160.64-22.29L160.64-22.29Q160.58-21.12 160.85-20.88 161.12-20.64 162.32-20.88L162.32-20.88Q163.38-21.12 163.64-21.41 163.89-21.7 163.86-22.66L163.86-22.66Q163.86-22.76 163.86-22.97L163.86-22.97Q163.82-23.89 164.13-24.06L164.13-24.06Q164.54-24.27 167.48-24.3L167.48-24.3Q168.1-24.3 168.47-24.3L168.47-24.3Q171.79-24.34 172.37-24.39 172.95-24.44 172.98-24.81L172.98-24.81Q173.02-25.09 172.27-25.84 171.51-26.59 170.56-27.31L170.56-27.31Q169.94-27.75 169.74-27.67 169.53-27.58 168.85-26.63L168.85-26.63Q168.1-25.5 167.58-25.33L167.58-25.33Q167.28-25.26 165.91-25.26 164.54-25.26 164.34-25.36L164.34-25.36Q163.82-25.63 163.82-26.51 163.82-27.38 164.37-27.82L164.37-27.82Q164.88-28.33 163.82-28.75L163.82-28.75Q163.14-29.02 161.53-29.39L161.53-29.39Q160.68-29.6 160.59-29.53 160.51-29.46 160.58-28.57L160.58-28.57Q160.71-26.97 160.64-26.3 160.58-25.63 160.23-25.43L160.23-25.43Q160-25.26 157.43-25.24 154.87-25.22 154.56-25.4L154.56-25.4Q154.05-25.63 154.06-26.61 154.08-27.58 154.63-27.89L154.63-27.89Q155.31-28.27 153.71-28.81L153.71-28.81Q152.92-29.09 151.52-29.46L151.52-29.46Q150.9-29.63 150.83-29.53 150.77-29.43 150.83-28.57L150.83-28.57Q150.97-26.97 150.9-26.3 150.83-25.63 150.49-25.4L150.49-25.4Q150.25-25.22 146.85-25.28 143.45-25.33 142.12-25.5L142.12-25.5Q141.81-25.57 141.85-25.36L141.85-25.36Q141.88-25.19 142.08-24.71L142.08-24.71Q142.39-23.99 142.56-23.93 142.73-23.86 143.76-23.99L143.76-23.99Q146.49-24.3 148.48-24.3L148.48-24.3Q150.42-24.3 150.72-24.05 151.01-23.79 151.01-22.08L151.01-22.08Q151.01-20.95 151.07-20.76 151.14-20.58 151.48-20.58L151.48-20.58Q152.1-20.58 152.1-20.2L152.1-20.2Q152.1-19.24 149.93-19.17 147.76-19.11 145.57-20L145.57-20Q143.96-20.68 143.83-20.58L143.83-20.58Q143.73-20.51 143.83-19.72L143.83-19.72Q144.1-17.23 144.12-12.41 144.14-7.59 143.9-3.62L143.9-3.62Q143.83-2.56 143.88-2.26 143.93-1.95 144.17-1.81ZM151.42-6.8L151.42-6.8Q151.21-6.67 149.43-6.67L149.43-6.67Q147.52-6.67 147.28-6.92 147.04-7.18 147.01-9.13L147.01-9.13Q147.01-9.33 147.01-9.67L147.01-9.67Q146.97-11.45 147.25-11.72L147.25-11.72Q147.49-12 148.99-12.03L148.99-12.03Q149.23-12.03 149.37-12.03L149.37-12.03Q151.38-12.07 151.64-11.79 151.89-11.52 151.89-9.37L151.89-9.37Q151.89-7.69 151.83-7.33 151.76-6.97 151.42-6.8ZM151.48-13.13L151.48-13.13Q151.31-13.06 149.55-13.02 147.79-12.99 147.55-13.06L147.55-13.06Q147.18-13.23 147.08-13.72 146.97-14.22 147.01-15.86L147.01-15.86Q147.04-17.74 147.31-18.01 147.59-18.29 149.5-18.29L149.5-18.29Q151.38-18.29 151.64-18.01 151.89-17.74 151.89-15.62L151.89-15.62Q151.89-14.08 151.83-13.69 151.76-13.3 151.48-13.13Z" transform="translate(-1.9660000801086426, 29.633808135986328)"></path></g> <!----> <!----> <!----> <!----> <!----> <!----> <!----></g></g> <g data-gra="path-slogan" fill-rule="" class="tp-slogan iconsvg-slogansvg" fill="#312b30" transform="translate(5,37.69957733154297)"><rect x="0" height="1" y="3.6050000190734863" width="19.88800811767578"></rect> <rect height="1" y="3.6050000190734863" width="19.88800811767578" x="141.12801361083984"></rect> <g transform="translate(22.88800811767578,0)"><g transform="scale(1)"><path d="M2.84-6.96L0.17-6.96L0.17-7.86L6.53-7.86L6.53-6.96L3.87-6.96L3.87 0L2.84 0L2.84-6.96ZM7.65-7.86L8.72-7.86L8.72 0L7.65 0L7.65-7.86ZM15.73 0L14.95-2.28L11.77-2.28L10.96 0L9.88 0L12.85-7.86L14.05-7.86L16.89 0L15.73 0ZM13.36-6.70L12.12-3.22L14.57-3.22L13.41-6.70L13.36-6.70ZM19.12-7.86L23.07-1.50L23.07-7.86L24.11-7.86L24.11 0L22.90 0L18.91-6.36L18.86-6.36L18.86 0L17.83 0L17.83-7.86L19.12-7.86ZM25.09-1.76L25.09-2.54L26.08-2.54L26.08-1.98Q26.08-0.69 27.29-0.69L27.29-0.69Q28.53-0.69 28.53-2.06L28.53-2.06L28.53-7.86L29.61-7.86L29.61-2.11Q29.56 0.09 27.33 0.13L27.33 0.13Q25.22 0.09 25.09-1.76L25.09-1.76ZM31.41-7.86L32.48-7.86L32.48 0L31.41 0L31.41-7.86ZM35.58-7.86L39.53-1.50L39.53-7.86L40.56-7.86L40.56 0L39.36 0L35.36-6.36L35.32-6.36L35.32 0L34.29 0L34.29-7.86L35.58-7.86ZM51.00-5.59L51.00-5.59L50.02-5.59Q49.93-7.09 48.04-7.18L48.04-7.18Q46.28-7.13 46.28-5.80L46.28-5.80Q46.28-4.94 47.22-4.81L47.22-4.81L49.46-4.30Q51.22-3.87 51.22-2.15L51.22-2.15Q51.18 0.04 48.13 0.13L48.13 0.13Q46.45 0.13 45.76-0.56L45.76-0.56Q44.90-1.20 44.95-2.54L44.95-2.54L45.98-2.54Q46.02-0.73 48.13-0.69L48.13-0.69Q50.19-0.73 50.23-2.02L50.23-2.02Q50.40-3.09 48.51-3.44L48.51-3.44L46.88-3.78Q45.20-4.25 45.20-5.67L45.20-5.67Q45.33-7.99 47.95-8.08L47.95-8.08Q50.92-8.08 51.00-5.59ZM53.63-4.64L57.75-4.64L57.75-7.86L58.82-7.86L58.82 0L57.75 0L57.75-3.65L53.63-3.65L53.63 0L52.55 0L52.55-7.86L53.63-7.86L53.63-4.64ZM60.63-7.86L61.70-7.86L61.70 0L60.63 0L60.63-7.86ZM71.63-3.57L67.76-3.57L67.76 0L66.69 0L66.69-7.86L72.14-7.86L72.14-6.96L67.76-6.96L67.76-4.51L71.63-4.51L71.63-3.57ZM78.42-2.92L78.42-7.86L79.49-7.86L79.49-2.79Q79.36 0.04 76.27 0.13L76.27 0.13Q73.39 0.04 73.26-2.62L73.26-2.62L73.26-7.86L74.34-7.86L74.34-2.92Q74.38-0.77 76.31-0.73L76.31-0.73Q78.42-0.77 78.42-2.92L78.42-2.92ZM91.74-7.86L91.74 0L90.71 0L90.71-4.64Q90.71-5.29 90.71-6.62L90.71-6.62L88.47 0L87.40 0L85.21-6.62L85.16-6.62Q85.16-6.14 85.21-5.20L85.21-5.20Q85.21-4.73 85.21-4.64L85.21-4.64L85.21 0L84.13 0L84.13-7.86L85.68-7.86L87.96-1.20L90.19-7.86L91.74-7.86ZM94.49-0.95L99.21-0.95L99.21 0L93.41 0L93.41-7.86L99.13-7.86L99.13-6.96L94.49-6.96L94.49-4.51L98.79-4.51L98.79-3.57L94.49-3.57L94.49-0.95ZM101.88-7.86L105.83-1.50L105.83-7.86L106.86-7.86L106.86 0L105.66 0L101.66-6.36L101.62-6.36L101.62 0L100.59 0L100.59-7.86L101.88-7.86ZM114.38-3.31L111.98-3.31L111.98-4.21L115.41-4.21L115.41 0L114.73 0L114.47-0.99Q113.57 0.09 111.89 0.13L111.89 0.13Q110.30 0.13 109.44-0.69L109.44-0.69Q108.15-1.89 108.20-4.00L108.20-4.00Q108.50-7.91 111.93-8.08L111.93-8.08Q114.86-7.91 115.29-5.50L115.29-5.50L114.25-5.50Q113.82-7.13 111.89-7.18L111.89-7.18Q109.44-7.00 109.31-3.95L109.31-3.95Q109.31-0.69 111.93-0.69L111.93-0.69Q112.88-0.69 113.57-1.20L113.57-1.20Q114.43-1.89 114.38-3.31L114.38-3.31Z" transform="translate(-0.171875, 8.078125)"></path></g></g></g></g></g><defs v-gra="od"></defs></svg>